# xmcd
#
# Track frame offsets:
#  150
#  9535
#  19332
#  29628
#  40014
#  51623
#  62597
#  73285
#  83475
#  93250
#  103293
#  113707
#  124530
#  134138
#  145555
#  156833
#  168450
#  180012
#  191439
#  202221
#  213749
#  224549
#  234775
#  245784
#  259471
#  269612
#  279697
#  289709
#  300422
#  309703
#  320675
#  330027
#  340362
#
# Disc length: 4684 seconds
#
# Revision: 0
# Processed by: cddbd v1.5.2PL0 Copyright (c) Steve Scherf et al.
# Submitted via: AltoMP3_Maker 3.0
#
DISCID=fb124a21
DTITLE=Various Artist - Capitol Hillbilly, Vol. 1
DYEAR=1900
DGENRE=
TTITLE0=Billy Strange - Diesel Smoke-Dangerous Curves
TTITLE1=Eddie Kirk - Freight Train Breakdown
TTITLE2=Terry Preston - Tenn. Central #9
TTITLE3=Red Murrell - Talkin' Blues
TTITLE4=Billy Strange - Hell Train
TTITLE5=Tennessee Ernie - Tennessee Local
TTITLE6=Eddie Kirk - Saturday Night Time Blues
TTITLE7=Rod Morris - Three Empty Bottles
TTITLE8=Jess Willard - Truck Driver's Boogie
TTITLE9=Gene O'Quin - Mobilin' Baby of Mine
TTITLE10=Sonny James - Shortcut
TTITLE11=Leon Payne - I'm a Lone Wolf
TTITLE12=Roy Hogsed - Ain't a Bump in the Road
TTITLE13=Big Bill Lister - What the Heck Is Goin' on?
TTITLE14=Wesley Tuttle - I Got a Round Trip Ticket
TTITLE15=Dub Dickerson - Sweet Bunch of Bitterweeds
TTITLE16=Al Rogers - All the Time
TTITLE17=Wynn Stewart - That Just Kills Me
TTITLE18=Ferlin Husky - Aladdin's Lamp
TTITLE19=Roy Acuff - Lonesome Joe
TTITLE20=Freddie Hart - Canada to Tennessee
TTITLE21=Skeets McDonald - Look Who's Crying Now
TTITLE22=Jerry Reed - Just a Romeo
TTITLE23=Merle Travis - Merle's Boogie
TTITLE24=The Farmer Boys - I'm Just too Lazy
TTITLE25=Jimmy Lee - I'm Diggin' a Hole to Bury My Heart
TTITLE26=Ray Parks - You're Gonna Have to Ball That's All
TTITLE27=Werly Fairburn - Baby He's a Wolf
TTITLE28=Ramblin' Jimmie Dolan - Tool Pusher on a Rotary Rig
TTITLE29=Merle Travis - Guitar Rag
TTITLE30=Roy Hogsed - Red Wing
TTITLE31=The Louvin Bros. - River of Jordan
TTITLE32=Jimmie Skiner - Will You Be Ready
EXTD=
EXTT0=
EXTT1=
EXTT2=
EXTT3=
EXTT4=
EXTT5=
EXTT6=
EXTT7=
EXTT8=
EXTT9=
EXTT10=
EXTT11=
EXTT12=
EXTT13=
EXTT14=
EXTT15=
EXTT16=
EXTT17=
EXTT18=
EXTT19=
EXTT20=
EXTT21=
EXTT22=
EXTT23=
EXTT24=
EXTT25=
EXTT26=
EXTT27=
EXTT28=
EXTT29=
EXTT30=
EXTT31=
EXTT32=
PLAYORDER=
